<svg xmlns="http://www.w3.org/2000/svg" viewBox="0 0 920 700" role="img" aria-labelledby="t d" font-family="'Segoe UI',system-ui,-apple-system,'Noto Sans TC','Microsoft JhengHei',sans-serif">
<title id="t">Discord 自動化機器人 · 系統架構</title><desc id="d">Playwright 驅動無頭 Chromium · 10 條 asyncio 排程 loop · 加密落地 · Web 儀表板</desc>
<defs><marker id="a" viewBox="0 0 10 10" refX="9" refY="5" markerWidth="7" markerHeight="7" orient="auto-start-reverse"><path d="M0 0L10 5L0 10z" fill="#7c8aa5"/></marker></defs>
<rect x="0" y="0" width="920" height="700" rx="14" fill="#0f1623"/>
<rect x="0" y="0" width="920" height="700" rx="14" fill="none" stroke="#283449" stroke-width="1.5"/>
<text x="40" y="50" fill="#7a5cc0" font-size="24" font-weight="600">Discord 自動化機器人 · 系統架構</text>
<text x="40" y="76" fill="#8a96ab" font-size="14.5">Playwright 驅動無頭 Chromium · 10 條 asyncio 排程 loop · 加密落地 · Web 儀表板</text>
<rect x="40" y="95" width="840" height="96" rx="10" fill="#121d2e" stroke="#3a5a8c" stroke-width="1.3"/><text x="60" y="119" fill="#9ec1f0" font-size="13.5" font-weight="500">main.py 入口</text>
<rect x="70" y="128" width="200" height="52" rx="8" fill="#1a2030" stroke="#2d3548" stroke-width="1.3"/><text x="170" y="152" fill="#dbe4f0" font-size="13.5" font-weight="500" text-anchor="middle">bootstrap</text><text x="170" y="169" fill="#8a96ab" font-size="11" text-anchor="middle">資料夾 / 遷移舊檔</text>
<rect x="300" y="128" width="240" height="52" rx="8" fill="#16243a" stroke="#3a5a8c" stroke-width="1.3"/><text x="420" y="152" fill="#dbe4f0" font-size="13.5" font-weight="500" text-anchor="middle">Playwright 登入精靈</text><text x="420" y="169" fill="#8a96ab" font-size="11" text-anchor="middle">首次或 session 過期</text>
<rect x="570" y="128" width="280" height="52" rx="8" fill="#241a2e" stroke="#7a5cc0" stroke-width="1.3"/><text x="710" y="152" fill="#dbe4f0" font-size="13.5" font-weight="500" text-anchor="middle">async_playwright</text><text x="710" y="169" fill="#8a96ab" font-size="11" text-anchor="middle">無頭 Chromium 分頁</text>
<rect x="40" y="215" width="840" height="110" rx="10" fill="#141a12" stroke="#5a6b3a" stroke-width="1.3"/><text x="60" y="239" fill="#b6c98a" font-size="13.5" font-weight="500">10 條 asyncio 迴圈 + UI</text>
<rect x="70" y="250" width="110" height="26" rx="6" fill="#1a2030" stroke="#3a4358" stroke-width="1"/><text x="125" y="267" fill="#c2cad8" font-size="11.5" text-anchor="middle">hourly</text>
<rect x="190" y="250" width="100" height="26" rx="6" fill="#1a2030" stroke="#3a4358" stroke-width="1"/><text x="240" y="267" fill="#c2cad8" font-size="11.5" text-anchor="middle">daily</text>
<rect x="300" y="250" width="130" height="26" rx="6" fill="#1a2030" stroke="#3a4358" stroke-width="1"/><text x="365" y="267" fill="#c2cad8" font-size="11.5" text-anchor="middle">gambling /slot</text>
<rect x="440" y="250" width="110" height="26" rx="6" fill="#1a2030" stroke="#3a4358" stroke-width="1"/><text x="495" y="267" fill="#c2cad8" font-size="11.5" text-anchor="middle">stock</text>
<rect x="560" y="250" width="110" height="26" rx="6" fill="#1a2030" stroke="#3a4358" stroke-width="1"/><text x="615" y="267" fill="#c2cad8" font-size="11.5" text-anchor="middle">news</text>
<rect x="680" y="250" width="110" height="26" rx="6" fill="#1a2030" stroke="#3a4358" stroke-width="1"/><text x="735" y="267" fill="#c2cad8" font-size="11.5" text-anchor="middle">digest</text>
<rect x="70" y="285" width="170" height="26" rx="6" fill="#1a2030" stroke="#3a4358" stroke-width="1"/><text x="155" y="302" fill="#c2cad8" font-size="11.5" text-anchor="middle">debug → Discord</text>
<rect x="250" y="285" width="130" height="26" rx="6" fill="#1a2030" stroke="#3a4358" stroke-width="1"/><text x="315" y="302" fill="#c2cad8" font-size="11.5" text-anchor="middle">updater</text>
<rect x="390" y="285" width="140" height="26" rx="6" fill="#1a2030" stroke="#3a4358" stroke-width="1"/><text x="460" y="302" fill="#c2cad8" font-size="11.5" text-anchor="middle">neko / transfer</text>
<rect x="540" y="285" width="130" height="26" rx="6" fill="#1a2030" stroke="#3a4358" stroke-width="1"/><text x="605" y="302" fill="#c2cad8" font-size="11.5" text-anchor="middle">Rich 終端 UI</text>
<text x="690" y="303" fill="#8a96ab" font-size="11.5"  >…等 10 條 loop</text>
<rect x="40" y="349" width="500" height="110" rx="10" fill="#181230" stroke="#7a5cc0" stroke-width="1.3"/><text x="60" y="373" fill="#cfc2ee" font-size="13.5" font-weight="500">bot.discord.client（Playwright wrapper）</text>
<rect x="60" y="384" width="220" height="56" rx="8" fill="#241a2e" stroke="#7a5cc0" stroke-width="1.3"/><text x="170" y="410" fill="#dbe4f0" font-size="13.5" font-weight="500" text-anchor="middle">共用 command_lock</text><text x="170" y="427" fill="#8a96ab" font-size="11" text-anchor="middle">指令序列化</text>
<rect x="300" y="384" width="220" height="56" rx="8" fill="#241a2e" stroke="#7a5cc0" stroke-width="1.3"/><text x="410" y="410" fill="#dbe4f0" font-size="13.5" font-weight="500" text-anchor="middle">ephemeral / embed parser</text><text x="410" y="427" fill="#8a96ab" font-size="11" text-anchor="middle">slot · stock · news</text>
<rect x="620" y="372" width="230" height="50" rx="8" fill="#1a2030" stroke="#2d3548" stroke-width="1.3"/><text x="735" y="401" fill="#dbe4f0" font-size="13.5" font-weight="500" text-anchor="middle">Discord 網頁</text>
<rect x="40" y="483" width="400" height="160" rx="10" fill="#1d1810" stroke="#9a7b3f" stroke-width="1.3"/><text x="60" y="507" fill="#d6b478" font-size="13.5" font-weight="500">持久化 data/</text>
<rect x="60" y="518" width="360" height="56" rx="8" fill="#2a1e10" stroke="#9a7b3f" stroke-width="1.3"/><text x="240" y="544" fill="#dbe4f0" font-size="13.5" font-weight="500" text-anchor="middle">SQLite (WAL) · bot.db</text><text x="240" y="561" fill="#8a96ab" font-size="11" text-anchor="middle">設定 / 歷史 / 分析 / 股價</text>
<rect x="60" y="582" width="175" height="44" rx="8" fill="#2a1e10" stroke="#9a7b3f" stroke-width="1.3"/><text x="147.5" y="602" fill="#dbe4f0" font-size="13.5" font-weight="500" text-anchor="middle">secret.key</text><text x="147.5" y="619" fill="#8a96ab" font-size="11" text-anchor="middle">Fernet 金鑰</text>
<rect x="245" y="582" width="175" height="44" rx="8" fill="#2a1e10" stroke="#9a7b3f" stroke-width="1.3"/><text x="332.5" y="602" fill="#dbe4f0" font-size="13.5" font-weight="500" text-anchor="middle">storage_state.json</text><text x="332.5" y="619" fill="#8a96ab" font-size="11" text-anchor="middle">Discord session</text>
<rect x="460" y="483" width="420" height="160" rx="10" fill="#1f1110" stroke="#c0603f" stroke-width="1.3"/><text x="480" y="507" fill="#e0a08a" font-size="13.5" font-weight="500">對外輸出</text>
<rect x="480" y="518" width="190" height="50" rx="8" fill="#2a1410" stroke="#c0603f" stroke-width="1.3"/><text x="575" y="541" fill="#dbe4f0" font-size="13.5" font-weight="500" text-anchor="middle">Web Dashboard</text><text x="575" y="558" fill="#8a96ab" font-size="11" text-anchor="middle">stdlib http.server</text>
<rect x="690" y="518" width="170" height="50" rx="8" fill="#2a1410" stroke="#c0603f" stroke-width="1.3"/><text x="775" y="541" fill="#dbe4f0" font-size="13.5" font-weight="500" text-anchor="middle">Email (SMTP)</text><text x="775" y="558" fill="#8a96ab" font-size="11" text-anchor="middle">8 種事件</text>
<rect x="480" y="582" width="190" height="44" rx="8" fill="#2a1410" stroke="#c0603f" stroke-width="1.3"/><text x="575" y="608" fill="#dbe4f0" font-size="13.5" font-weight="500" text-anchor="middle">Discord 除錯頻道</text>
<rect x="690" y="582" width="170" height="44" rx="8" fill="#2a1410" stroke="#c0603f" stroke-width="1.3"/><text x="775" y="608" fill="#dbe4f0" font-size="13.5" font-weight="500" text-anchor="middle">匯出 CSV / PNG</text>
<line x1="710" y1="180" x2="600" y2="215" stroke="#7c8aa5" stroke-width="1.6" marker-end="url(#a)"/>
<line x1="170" y1="325" x2="170" y2="384" stroke="#7c8aa5" stroke-width="1.6" marker-end="url(#a)"/><text x="215" y="360" fill="#7c8aa5" font-size="11" text-anchor="middle">loops 驅動</text>
<line x1="280" y1="412" x2="300" y2="412" stroke="#7c8aa5" stroke-width="1.6" marker-end="url(#a)"/>
<line x1="520" y1="412" x2="620" y2="397" stroke="#7c8aa5" stroke-width="1.6" marker-end="url(#a)"/>
<line x1="160" y1="440" x2="160" y2="518" stroke="#5d6b82" stroke-width="1.6" stroke-dasharray="5 4" marker-end="url(#a)"/><text x="196" y="482" fill="#7c8aa5" font-size="11" text-anchor="middle">讀寫</text>
<line x1="420" y1="546" x2="480" y2="543" stroke="#7c8aa5" stroke-width="1.6" marker-end="url(#a)"/><text x="450" y="536" fill="#7c8aa5" font-size="11" text-anchor="middle">DB → 儀表板/匯出</text>
<line x1="740" y1="325" x2="740" y2="483" stroke="#5d6b82" stroke-width="1.6" stroke-dasharray="5 4" marker-end="url(#a)"/><text x="800" y="410" fill="#7c8aa5" font-size="11" text-anchor="middle">Email / 除錯</text>
</svg>